<svg xmlns="http://www.w3.org/2000/svg" xmlns:xlink="http://www.w3.org/1999/xlink" width="175" zoomAndPan="magnify" viewBox="0 0 131.25 32.249999" height="43" preserveAspectRatio="xMidYMid meet" version="1.0"><defs><g/><clipPath id="27c1c7c820"><path d="M 101 0 L 110 0 L 110 12 L 101 12 Z M 101 0 " clip-rule="nonzero"/></clipPath><clipPath id="ada2255e7e"><path d="M 99.394531 5.679688 L 105.097656 -0.0195312 L 110.796875 5.679688 L 105.097656 11.382812 Z M 99.394531 5.679688 " clip-rule="nonzero"/></clipPath><clipPath id="5a6b3d8d09"><path d="M 99.394531 5.679688 L 105.097656 -0.0195312 L 110.796875 5.679688 L 105.097656 11.382812 Z M 99.394531 5.679688 " clip-rule="nonzero"/></clipPath></defs><g fill="#8b00ff" fill-opacity="1"><g transform="translate(8.10404, 30.172357)"><g><path d="M 20.421875 -15.578125 C 22.085938 -13.753906 22.921875 -11.523438 22.921875 -8.890625 C 22.921875 -6.253906 22.085938 -4.023438 20.421875 -2.203125 C 18.753906 -0.390625 16.632812 0.515625 14.0625 0.515625 C 11.695312 0.515625 9.753906 -0.328125 8.234375 -2.015625 L 8.15625 -2.015625 L 8.15625 0 L 2.078125 0 L 2.078125 -29.859375 L 8.234375 -29.859375 L 8.234375 -16.109375 C 9.753906 -17.585938 11.695312 -18.328125 14.0625 -18.328125 C 16.632812 -18.328125 18.753906 -17.410156 20.421875 -15.578125 Z M 15.234375 -5.875 C 16.003906 -6.65625 16.390625 -7.660156 16.390625 -8.890625 C 16.390625 -10.117188 15.988281 -11.125 15.1875 -11.90625 C 14.382812 -12.695312 13.394531 -13.09375 12.21875 -13.09375 C 11.0625 -13.09375 10.082031 -12.695312 9.28125 -11.90625 C 8.488281 -11.125 8.09375 -10.117188 8.09375 -8.890625 C 8.09375 -7.679688 8.476562 -6.679688 9.25 -5.890625 C 10.03125 -5.109375 11.019531 -4.71875 12.21875 -4.71875 C 13.46875 -4.71875 14.472656 -5.101562 15.234375 -5.875 Z M 15.234375 -5.875 "/></g></g></g><g fill="#8b00ff" fill-opacity="1"><g transform="translate(29.106481, 30.172357)"><g><path d="M 20.109375 -8.0625 L 7.1875 -8.0625 C 7.1875 -6.8125 7.585938 -5.882812 8.390625 -5.28125 C 9.203125 -4.675781 10.085938 -4.375 11.046875 -4.375 C 12.035156 -4.375 12.816406 -4.503906 13.390625 -4.765625 C 13.972656 -5.035156 14.632812 -5.566406 15.375 -6.359375 L 19.828125 -4.125 C 17.972656 -1.03125 14.894531 0.515625 10.59375 0.515625 C 7.90625 0.515625 5.597656 -0.398438 3.671875 -2.234375 C 1.753906 -4.078125 0.796875 -6.296875 0.796875 -8.890625 C 0.796875 -11.484375 1.753906 -13.703125 3.671875 -15.546875 C 5.597656 -17.398438 7.90625 -18.328125 10.59375 -18.328125 C 13.414062 -18.328125 15.710938 -17.507812 17.484375 -15.875 C 19.253906 -14.25 20.140625 -11.921875 20.140625 -8.890625 C 20.140625 -8.472656 20.128906 -8.195312 20.109375 -8.0625 Z M 7.359375 -11.453125 L 14.125 -11.453125 C 13.988281 -12.378906 13.625 -13.09375 13.03125 -13.59375 C 12.445312 -14.09375 11.691406 -14.34375 10.765625 -14.34375 C 9.742188 -14.34375 8.929688 -14.070312 8.328125 -13.53125 C 7.734375 -13 7.410156 -12.304688 7.359375 -11.453125 Z M 7.359375 -11.453125 "/></g></g></g><g fill="#8b00ff" fill-opacity="1"><g transform="translate(47.331698, 30.172357)"><g><path d="M 22.421875 -17.8125 L 13.953125 -9.296875 L 23.265625 0 L 15.34375 0 L 8.234375 -7.125 L 8.234375 0 L 2.078125 0 L 2.078125 -29.859375 L 8.234375 -29.859375 L 8.234375 -11.59375 L 14.4375 -17.8125 Z M 22.421875 -17.8125 "/></g></g></g><g fill="#8b00ff" fill-opacity="1"><g transform="translate(67.049669, 30.172357)"><g><path d="M 20.109375 -8.0625 L 7.1875 -8.0625 C 7.1875 -6.8125 7.585938 -5.882812 8.390625 -5.28125 C 9.203125 -4.675781 10.085938 -4.375 11.046875 -4.375 C 12.035156 -4.375 12.816406 -4.503906 13.390625 -4.765625 C 13.972656 -5.035156 14.632812 -5.566406 15.375 -6.359375 L 19.828125 -4.125 C 17.972656 -1.03125 14.894531 0.515625 10.59375 0.515625 C 7.90625 0.515625 5.597656 -0.398438 3.671875 -2.234375 C 1.753906 -4.078125 0.796875 -6.296875 0.796875 -8.890625 C 0.796875 -11.484375 1.753906 -13.703125 3.671875 -15.546875 C 5.597656 -17.398438 7.90625 -18.328125 10.59375 -18.328125 C 13.414062 -18.328125 15.710938 -17.507812 17.484375 -15.875 C 19.253906 -14.25 20.140625 -11.921875 20.140625 -8.890625 C 20.140625 -8.472656 20.128906 -8.195312 20.109375 -8.0625 Z M 7.359375 -11.453125 L 14.125 -11.453125 C 13.988281 -12.378906 13.625 -13.09375 13.03125 -13.59375 C 12.445312 -14.09375 11.691406 -14.34375 10.765625 -14.34375 C 9.742188 -14.34375 8.929688 -14.070312 8.328125 -13.53125 C 7.734375 -13 7.410156 -12.304688 7.359375 -11.453125 Z M 7.359375 -11.453125 "/></g></g></g><g fill="#8b00ff" fill-opacity="1"><g transform="translate(85.274886, 30.172357)"><g><path d="M 2.078125 0 L 2.078125 -17.8125 L 8.234375 -17.8125 L 8.234375 -15.9375 L 8.296875 -15.9375 C 9.890625 -17.53125 11.59375 -18.328125 13.40625 -18.328125 C 14.695312 -18.328125 15.910156 -18.0625 17.046875 -17.53125 C 18.179688 -17 19.035156 -16.175781 19.609375 -15.0625 C 21.421875 -17.238281 23.390625 -18.328125 25.515625 -18.328125 C 27.410156 -18.328125 29.039062 -17.796875 30.40625 -16.734375 C 31.78125 -15.671875 32.46875 -14.003906 32.46875 -11.734375 L 32.46875 0 L 26.3125 0 L 26.3125 -10.0625 C 26.3125 -11.007812 26.050781 -11.800781 25.53125 -12.4375 C 25.007812 -13.082031 24.226562 -13.40625 23.1875 -13.40625 C 22.289062 -13.40625 21.601562 -13.128906 21.125 -12.578125 C 20.65625 -12.035156 20.394531 -11.382812 20.34375 -10.625 L 20.34375 0 L 14.203125 0 L 14.203125 -10.0625 C 14.203125 -11.007812 13.941406 -11.800781 13.421875 -12.4375 C 12.898438 -13.082031 12.117188 -13.40625 11.078125 -13.40625 C 10.128906 -13.40625 9.414062 -13.109375 8.9375 -12.515625 C 8.46875 -11.921875 8.234375 -11.222656 8.234375 -10.421875 L 8.234375 0 Z M 2.078125 0 "/></g></g></g><g clip-path="url(#27c1c7c820)"><g clip-path="url(#ada2255e7e)"><g clip-path="url(#5a6b3d8d09)"><path fill="#8b00ff" d="M 102.238281 8.523438 L 105.042969 11.328125 L 107.914062 8.457031 C 109.464844 6.910156 109.464844 4.394531 107.914062 2.847656 L 105.078125 0.0078125 L 102.238281 2.847656 C 100.671875 4.414062 100.671875 6.957031 102.238281 8.523438 Z M 102.238281 8.523438 " fill-opacity="1" fill-rule="nonzero"/></g></g></g></svg>